<svg width="100" height="100" viewBox="0 0 100 100" fill="none" xmlns="http://www.w3.org/2000/svg">
<path d="M55.009 10.8L52.609 20.4C56.009 13.6 61.509 8.5 67.809 4C63.209 9.3 59.009 14.6 56.509 20C60.809 13.9 66.609 10.6 73.109 8.3C64.409 16 57.509 24.4 52.309 32.7L48.109 30.9C48.809 24.2 51.309 17.4 55.009 10.8Z" fill="#010101"/>
<path d="M51.809 32.3L54.709 33.8C54.409 35.7 54.809 39.9 56.709 40.9C65.109 46.1 72.909 51.7 76.009 57.4C87.009 77.3 68.309 95.8 52.009 94C60.809 87.5 63.409 74.1 60.109 59.4C58.809 53.7 56.709 48.5 53.009 42.6C51.409 39.9 52.009 36.3 51.809 32.3Z" fill="#010101"/>
<path d="M48.609 41.8C48.009 44.9 47.309 50.5 44.609 52.6C43.509 53.4 42.309 54.2 41.109 55C36.209 58.3 31.409 61.4 29.209 69.3C28.709 71 29.109 72.8 29.509 74.5C30.709 79.4 34.109 84.6 36.809 87.7C36.809 87.8 37.309 88.2 37.309 88.3C39.509 90.9 40.209 91.7 48.609 93.6L48.409 94.5C43.309 93.2 39.209 91.9 36.509 88.9C36.509 88.8 36.009 88.4 36.009 88.4C33.209 85.2 29.709 79.8 28.509 74.7C28.009 72.7 27.609 71.1 28.209 69C30.509 60.8 35.509 57.5 40.509 54.1C41.609 53.4 43.009 52.7 44.109 51.8C46.409 50.3 47.509 45.6 48.609 41.8Z" fill="#010101"/>
<path d="M50.809 54.8C50.909 58.3 50.509 60.1 51.409 62.6C51.909 64.1 53.809 66.1 54.309 68.1C55.009 70.7 55.809 73.6 55.809 75.4C55.809 77.4 55.709 81.2 54.809 85.2C54.109 88.5 52.609 91.4 50.009 93C47.309 92.5 44.209 91.5 42.409 89.9C38.809 86.8 35.709 81.6 35.309 77.1C35.009 73.4 38.409 67.9 43.209 65.2C47.209 62.8 48.209 60.2 49.109 55.8C47.909 59.6 46.709 62.7 42.809 64.8C37.109 67.8 34.209 72.7 34.509 77.5C34.909 83.6 37.309 87.7 42.109 91C44.109 92.4 47.909 93.9 50.309 94.3V94C52.109 93.7 54.409 90.7 55.609 86.8C56.609 83.2 57.009 78.7 56.909 75.8C56.809 74.1 56.109 70.5 54.709 67.2C54.009 65.4 52.809 63.6 52.109 62.3C51.209 60.8 51.209 58 50.809 54.8Z" fill="#010101"/>
<path d="M50.209 68.5C50.309 70.9 51.209 73.9 51.609 77C51.909 79.3 51.809 81.6 51.709 83.6C51.609 85.9 50.909 90.1 49.809 92.2C48.809 91.7 48.409 91.2 47.709 90.4C46.909 89.3 46.309 88.1 45.809 86.8C45.409 85.8 44.909 84.6 44.709 83.3C44.409 81.3 44.509 78.1 46.809 74.9C48.609 72.3 49.009 72.1 49.609 69.2C48.809 71.8 48.209 72.1 46.309 74.3C44.209 76.7 43.909 80.3 43.909 83.2C43.909 84.4 44.409 85.8 44.909 87C45.409 88.3 45.909 89.7 46.609 90.7C47.709 92.3 49.109 93.3 49.809 93.4V93.3C51.109 91.8 51.909 90.4 52.209 88.9C52.509 87.1 52.609 85.4 52.809 83.3C53.009 81.5 52.909 79.2 52.409 76.8C51.809 73.8 50.709 70.7 50.209 68.5Z" fill="#010101"/>
<path d="M50.609 39C50.709 42.5 50.909 49 51.909 51.6C52.209 52.5 54.709 56.3 56.409 61C57.609 64.2 57.909 67.2 58.109 68.1C58.909 71.9 57.909 78.4 56.609 84.5C55.909 87.8 53.609 91.9 51.009 93.5L50.509 94.4C52.009 94.3 55.609 90.8 56.909 86.3C59.109 78.8 59.909 75.3 58.909 66.9C58.809 66.1 58.409 63.3 57.109 60.4C55.209 55.9 52.509 51.6 52.209 50.7C51.509 49.3 50.709 43.1 50.609 39Z" fill="#010101"/>
<path d="M51.809 32.6C51.609 36.2 51.609 39 52.209 41.7C52.909 44.6 56.709 48.8 58.309 53.6C61.309 62.8 60.509 74.8 58.409 84.1C57.609 87.4 53.809 92.2 49.909 93.7L52.709 94.4C54.209 94.3 58.209 90.6 59.809 86.4C62.309 79.7 62.809 71.8 61.809 63.4C61.709 62.6 60.409 55.4 59.109 52.4C57.309 47.9 54.409 44.7 53.409 41.9C52.609 39.8 52.309 34.2 52.809 33.1L51.809 32.6Z" fill="#010101"/>
<path d="M71.809 50.2998C68.909 47.6998 65.309 45.4998 61.509 43.3998C59.809 42.4998 54.609 38.3998 56.409 32.5998L43.309 27.1998L42.409 27.8998C46.809 35.7998 44.509 39.9998 42.309 41.3998C37.909 44.3998 31.509 48.1998 28.409 51.4998C22.309 57.7998 20.509 63.7998 21.109 71.5998C21.709 81.6998 29.009 90.0998 38.909 93.3998C43.209 94.7998 47.209 94.9998 51.609 94.9998C58.709 94.9998 66.109 93.0998 71.409 88.6998C77.109 83.9998 80.409 76.8998 80.409 69.5998C80.409 62.2998 77.309 55.2998 71.809 50.2998ZM69.909 87.1998C65.009 91.1998 56.209 93.9998 51.509 93.7998C46.309 93.4998 41.209 92.6998 36.709 90.4998C28.809 86.6998 23.609 78.3998 23.209 71.6998C22.509 57.9998 29.109 54.0998 35.209 49.0998C38.609 46.2998 43.409 44.8998 46.109 39.8998C46.609 38.7998 46.909 36.3998 46.309 33.8998C46.009 32.9998 44.809 29.9998 44.309 29.2998L54.109 33.5998C52.909 38.0998 56.609 42.7998 59.609 44.4998C62.609 46.1998 67.309 49.3998 70.209 51.9998C75.309 56.4998 77.909 62.8998 77.909 69.5998C77.909 76.2998 75.109 82.8998 69.909 87.1998Z" fill="#010101"/>
</svg>
