<svg width="151" height="92" viewBox="0 0 151 92" fill="none" xmlns="http://www.w3.org/2000/svg">
<g clip-path="url(#clip0)">
<path d="M84.9 6.80023L82.5 16.4002C85.9 9.60023 91.4 4.50023 97.7 0.000225067C93.1 5.30023 88.9 10.6002 86.4 16.0002C90.7 9.90022 96.5 6.60023 103 4.30023C94.3 12.0002 87.4 20.4002 82.2 28.7002L78 26.9002C78.7 20.2002 81.2 13.4002 84.9 6.80023Z" fill="#010101"/>
<path d="M81.7 28.3002L84.6 29.8002C84.3 31.7002 84.7 35.9002 86.6 36.9002C95 42.1002 102.8 47.7002 105.9 53.4002C116.9 73.3002 98.2 91.8002 81.9 90.0002C90.7 83.5002 93.3 70.1002 90 55.4002C88.7 49.7002 86.6 44.5002 82.9 38.6002C81.3 35.9002 81.9 32.3002 81.7 28.3002Z" fill="#010101"/>
<path d="M78.5 37.8002C77.9 40.9002 77.2 46.5002 74.5 48.6002C73.4 49.4002 72.2 50.2002 71 51.0002C66.1 54.3002 61.3 57.4002 59.1 65.3002C58.6 67.0002 59 68.8002 59.4 70.5002C60.6 75.4002 64 80.6002 66.7 83.7002C66.7 83.8002 67.2 84.2002 67.2 84.3002C69.4 86.9002 70.1 87.7002 78.5 89.6002L78.3 90.5002C73.2 89.2002 69.1 87.9002 66.4 84.9002C66.4 84.8002 65.9 84.4002 65.9 84.4002C63.1 81.2002 59.6 75.8002 58.4 70.7002C57.9 68.7002 57.5 67.1002 58.1 65.0002C60.4 56.8002 65.4 53.5002 70.4 50.1002C71.5 49.4002 72.9 48.7002 74 47.8002C76.3 46.3002 77.4 41.6002 78.5 37.8002Z" fill="#010101"/>
<path d="M80.7 50.8002C80.8 54.3002 80.4 56.1002 81.3 58.6002C81.8 60.1002 83.7 62.1002 84.2 64.1002C84.9 66.7002 85.7 69.6002 85.7 71.4002C85.7 73.4002 85.6 77.2002 84.7 81.2002C84 84.5002 82.5 87.4002 79.9 89.0002C77.2 88.5002 74.1 87.5002 72.3 85.9002C68.7 82.8002 65.6 77.6002 65.2 73.1002C64.9 69.4002 68.3 63.9002 73.1 61.2002C77.1 58.8002 78.1 56.2002 79 51.8002C77.8 55.6002 76.6 58.7002 72.7 60.8002C67 63.8002 64.1 68.7002 64.4 73.5002C64.8 79.6002 67.2 83.7002 72 87.0002C74 88.4002 77.8 89.9002 80.2 90.3002V90.0002C82 89.7002 84.3 86.7002 85.5 82.8002C86.5 79.2002 86.9 74.7002 86.8 71.8002C86.7 70.1002 86 66.5002 84.6 63.2002C83.9 61.4002 82.7 59.6002 82 58.3002C81.1 56.8002 81.1 54.0002 80.7 50.8002Z" fill="#010101"/>
<path d="M80.1 64.5002C80.2 66.9002 81.1 69.9002 81.5 73.0002C81.8 75.3002 81.7 77.6002 81.6 79.6002C81.5 81.9002 80.8 86.1002 79.7 88.2002C78.7 87.7002 78.3 87.2002 77.6 86.4002C76.8 85.3002 76.2 84.1002 75.7 82.8002C75.3 81.8002 74.8 80.6002 74.6 79.3002C74.3 77.3002 74.4 74.1002 76.7 70.9002C78.5 68.3002 78.9 68.1002 79.5 65.2002C78.7 67.8002 78.1 68.1002 76.2 70.3002C74.1 72.7002 73.8 76.3002 73.8 79.2002C73.8 80.4002 74.3 81.8002 74.8 83.0002C75.3 84.3002 75.8 85.7002 76.5 86.7002C77.6 88.3002 79 89.3002 79.7 89.4002V89.3002C81 87.8002 81.8 86.4002 82.1 84.9002C82.4 83.1002 82.5 81.4002 82.7 79.3002C82.9 77.5002 82.8 75.2002 82.3 72.8002C81.7 69.8002 80.6 66.7002 80.1 64.5002Z" fill="#010101"/>
<path d="M80.5 35.0002C80.6 38.5002 80.8 45.0002 81.8 47.6002C82.1 48.5002 84.6 52.3002 86.3 57.0002C87.5 60.2002 87.8 63.2002 88 64.1002C88.8 67.9002 87.8 74.4002 86.5 80.5002C85.8 83.8002 83.5 87.9002 80.9 89.5002L80.4 90.4002C81.9 90.3002 85.5 86.8002 86.8 82.3002C89 74.8002 89.8 71.3002 88.8 62.9002C88.7 62.1002 88.3 59.3002 87 56.4002C85.1 51.9002 82.4 47.6002 82.1 46.7002C81.4 45.3002 80.6 39.1002 80.5 35.0002Z" fill="#010101"/>
<path d="M81.7 28.6002C81.5 32.2002 81.5 35.0002 82.1 37.7002C82.8 40.6002 86.6 44.8002 88.2 49.6002C91.2 58.8002 90.4 70.8002 88.3 80.1002C87.5 83.4002 83.7 88.2002 79.8 89.7002L82.6 90.4002C84.1 90.3002 88.1 86.6002 89.7 82.4002C92.2 75.7002 92.7 67.8002 91.7 59.4002C91.6 58.6002 90.3 51.4002 89 48.4002C87.2 43.9002 84.3 40.7002 83.3 37.9002C82.5 35.8002 82.2 30.2002 82.7 29.1002L81.7 28.6002Z" fill="#010101"/>
<path d="M3.8 8.8H57.9C59.9 8.8 61.7 10.5 61.7 12.6V28.6C61.7 30.7 59.9 32.4 57.9 32.4H46.8C44.3 32.4 43.2 33.8 43.2 35.4V87.7C43.2 89.5 41.8 90.8 40.1 90.8H21.7C20 90.8 18.7 89.5 18.7 87.7V34.9C18.7 33.3 17.2 32.3 16.1 32.3H3.8C1.7 32.3 0 30.6 0 28.5V12.5C0 10.5 1.7 8.8 3.8 8.8Z" fill="#010101"/>
<path d="M142.6 30H147.4C149.2 30 150.6 31.4 150.6 33.1V50.2C150.6 52.4 150.7 53.3 148 53.3C142.7 53.3 140.3 56.1 140.3 59.2V88.1C140.3 89.4 139 90.6 137.5 90.6H120.3C118.8 90.6 117.5 89.5 117.5 88.1V55.2C117.5 54.6 117.5 53.8 117.6 53.3C118.5 41.1 128.1 31.4 140.2 30.1C140.5 30.1 141.9 30 142.6 30Z" fill="#010101"/>
<path d="M101.7 46.3C98.8 43.7 95.2 41.5 91.4 39.4C89.7 38.5 84.5 34.4 86.3 28.6L73.2 23.2L72.3 23.9C76.7 31.8 74.4 36 72.2 37.4C67.8 40.4 61.4 44.2 58.3 47.5C52.2 53.8 50.4 59.8 51 67.6C51.6 77.7 58.9 86.1 68.8 89.4C73.1 90.8 77.1 91 81.5 91C88.6 91 96 89.1 101.3 84.7C107 80 110.3 72.9 110.3 65.6C110.3 58.3 107.2 51.3 101.7 46.3ZM99.8 83.2C94.9 87.2 86.1 90 81.4 89.8C76.2 89.5 71.1 88.7 66.6 86.5C58.7 82.7 53.5 74.4 53.1 67.7C52.4 54 59 50.1 65.1 45.1C68.5 42.3 73.3 40.9 76 35.9C76.5 34.8 76.8 32.4 76.2 29.9C75.9 29 74.7 26 74.2 25.3L84 29.6C82.8 34.1 86.5 38.8 89.5 40.5C92.5 42.2 97.2 45.4 100.1 48C105.2 52.5 107.8 58.9 107.8 65.6C107.8 72.3 105 78.9 99.8 83.2Z" fill="#010101"/>
</g>
<defs>
<clipPath id="clip0">
<rect width="150.5" height="91.1" fill="white"/>
</clipPath>
</defs>
</svg>
